# xmcd
#
# Track frame offsets:
#	150
#	15105
#	32224
#	46471
#	61036
#	77176
#	93176
#	108007
#	121346
#	139128
#	152264
#	171985
#	185349
#	198093
#	211325
#	223942
#	238835
#	253957
#	268352
#	287023
#
# Disc length: 4035 seconds
#
# Revision: 4
# Processed by: cddbd v1.5.1PL0 Copyright (c) Steve Scherf et al.
# Submitted via: audiograbber 1.83.01
#
DISCID=190fc114
DTITLE=2002-06 Country Radio - 2002-06 Country Radio
DYEAR=2002
DGENRE=Country
TTITLE0=Kenny Chesney - The Good Stuff
TTITLE1=Lee Ann Womack - Something Worth Leaving Behind
TTITLE2=Jack Kapanka - She's Got My Heart
TTITLE3=Toby Keith - Courtesy Of The Red, White And Blue
TTITLE4=SheDaisy - Mine All Mine
TTITLE5=Blackhawk - One Night In New Orleans
TTITLE6=Jo Dee Messina - Dare To Dream
TTITLE7=Kevin Denney - Cadillac Tears
TTITLE8=Rebecca Lynn Howard - Forgive
TTITLE9=Daryle Singletary - That's Why I Sing This Way
TTITLE10=Tammy Cochran - Life Happened
TTITLE11=Sonya Isaacs - Baby Don't You Let Go
TTITLE12=McBride and The Ride - Squeeze Box
TTITLE13=Rhonda Vincent - I'm Not Over You
TTITLE14=Kacey Jones - I Thought He Was Mr. Right
TTITLE15=Ray Stevens - Hello Mama
TTITLE16=Casey Lee Green - In The Night
TTITLE17=Trick Pony - Just What I Do (Acoustic)
TTITLE18=Johnny Patton and Linda Davis - Throughout Eternity
TTITLE19=Cerrito - Table For Two
EXTD=
EXTT0=
EXTT1=
EXTT2=
EXTT3=
EXTT4=
EXTT5=
EXTT6=
EXTT7=
EXTT8=
EXTT9=
EXTT10=
EXTT11=
EXTT12=
EXTT13=
EXTT14=
EXTT15=
EXTT16=
EXTT17=
EXTT18=
EXTT19=
PLAYORDER=
